<svg xmlns="http://www.w3.org/2000/svg" height="103.16" viewBox="0 0 250 103.15569" width="250"><g transform="matrix(1.25 0 0 -1.25 -249.36 676.98)"><g transform="matrix(1.1917 0 0 1.1917 -56.31 -95.037)"><path d="m371.72 506.35 4.0723 9.1858-1.4154 1.2237 1.1507 2.2185h1.8626l4.5476 9.3677-2.6303 2.6292h-17.75l-0.49353-0.98445c-1.2591 0.92973-4.3824 0.98445-4.3824 0.98445h-34.021l-0.49822-0.86302c-7.8673 3.0487-16.225-0.63946-16.225-0.63946-9.1082 3.9144-16.974 0.45132-16.974 0.45132-5.7968 2.5224-12.534 0.9412-12.534 0.9412h-5.1943l-2.8981 2.6099-13.929-0.05-7.5645-6.5488-0.8229 4.1546-2.6339 2.3869-13.368 0.007-4.9311-10.25 2.0705-1.8704-1.7391-3.5871h-2.4108l-7.5598-14.681 2.4161-1.7771 47.464-3.8075s-1.8511-4.1145 1.1981-8.1211c0 0 3.8659-5.3548 9.4672-7.2701l4.4329-1.3477s-4.964-1.9491-11.559-0.17667c0 0-0.2835 0.78017-0.92139 1.5593-0.63894 0.78121-0.0719-0.0349-0.0719-0.0349l-1.5952 2.1279s-1.2414 1.4535-3.7247 1.4175c0 0-4.9973-0.0709-5.9912-4.2536l-2.4817-10.284 2.1279-2.944s23.546-7.7303 40.636 3.6882c0 0 5.4601-2.8361 15.033-0.85l1.6687-2.6579s1.133-1.6317 4.325-1.6317h21.985s4.7404-0.18553 5.7436 4.2552c0 0 0.49197 2.5067-1.1705 4.7607 0 0-0.9855 1.4639-1.7188 2.168l9.2724 19.558 2.9096-0.1058s2.3045-0.10631 3.0837-1.2773l0.4607-0.63737s1.8079-2.6589 5.0348-2.7658c0 0 3.6168-0.21263 5.212 4.4319l3.0352 9.2901z" fill="#daaa00"/><path d="m231.75 531.26-2.3012-4.7449h3.14l-5.4412-10.993h-2.4103l-2.2279-4.6391h10.984l2.1489 4.4078 0.60095-3.6057h4.0894l4.0544 3.6904-2.0659-4.4396 22.993-0.0896 0.1824 0.40064c8.217-2.3374 14.207 1.2418 14.207 1.2418l-0.14495-0.83873c2.0064-0.8771 6.3174-1.1335 6.3174-1.1335 8.402-0.54721 12.235 4.0169 12.235 4.0169 2.3744-4.237 8.4736-4.0169 8.4736-4.0169 8.5829-0.43777 14.281 4.6016 14.281 4.6016 0.29184-4.8201 7.9248-4.6016 7.9248-4.6016 5.076-0.10892 8.9117 1.8998 8.9117 1.8998l-0.73124-1.4959h12.726l1.3363 2.7084c0.92087-2.6131 2.8663-2.6994 2.8663-2.6994h14.251l2.245 4.5739h-2.8093l4.192 8.6552h1.9999l2.219 4.5487h-12.272l-1.2874-2.5756c-2.0815 2.9586-6.437 2.5813-6.437 2.5813h-16.218l-2.2694-4.5715h2.7865l-2.8028-5.7017c-0.56389-1.0949-1.7027-1.8273-1.7027-1.8273-2.6052-1.5395-5.7644-1.2654-5.7644-1.2654-1.7756 0.27778-0.94621 1.5806-0.94621 1.5806l3.552 7.2652h1.9356l2.2108 4.5405h-12.596l-0.86886-1.8167c-2.8835 2.4494-8.213 2.2108-8.213 2.2108-8.1738-0.0787-13.583-4.9347-13.583-4.9347l1.5 3.8696c-10.543 3.5146-16.545-2.1709-16.545-2.1709l0.83141 2.1318c-8.4109 3.0404-14.848-0.94866-14.848-0.94866l0.78987 1.6587h-9.2016l1.1457 2.5268h-9.871l-11.53-10.106-2.2116 10.106h-9.8327zm81.958-6.7359c3.314 0.0636 3.3557-1.5977 3.3557-1.5977 0.27309-2.0544-1.3835-4.3386-1.3835-4.3386-2.4833-3.2494-6.6463-3.451-6.6463-3.451-3.1957-0.0896-3.3973 1.6441-3.3973 1.6441-0.25432 1.9543 1.3688 4.1814 1.3688 4.1814 2.4296 3.6705 6.7025 3.5618 6.7025 3.5618zm-17.936-0.12214c0.73639-0.0153 1.1938-0.14576 1.1938-0.14576 1.011-2.4406 3.3834-1.2198 3.3834-1.2198-0.94121-0.99436-1.5887-2.2149-1.5887-2.2149-0.88856 1.1674-3.609 1.9535-3.609 1.9535l-2.0382 0.6091c-0.80258 0.2095-0.20928 0.47148-0.20928 0.47148 1.1158 0.46174 2.1316 0.56164 2.868 0.5464zm-15.89-0.0196c0.81312-0.009 1.4104-0.12621 1.4104-0.12621 0.15739-0.9584 1.3086-1.3599 1.3086-1.3599 1.2367-0.41849 2.0553 0.17507 2.0553 0.17507-1.1867-4.3589 4.2042-5.5633 4.2042-5.5633l2.1782-0.60829c1.1867-0.31321 0.45275-0.69867 0.45275-0.69867-3.4688-1.847-6.3646-0.55698-6.3646-0.55698-0.1058 1.097-1.2198 1.5683-1.2198 1.5683 1.0986 4.0796-4.0796 5.4387-4.0796 5.4387l-2.1791 0.66365c-1.047 0.31478-0.47148 0.5407-0.47148 0.5407 0.86303 0.43569 1.892 0.53558 2.7051 0.52685zm-20.279-0.022 1.3933-0.0179-4.2702-8.7879h-1.4136l4.2906 8.8058zm103.33-0.19055h0.74671l-4.2287-8.6845h-0.52197c-1.17 1.5421-1.5928 2.7613-1.5928 2.7613 5.8729 1.7412 5.5967 5.9232 5.5967 5.9232zm-93.903-0.0367h0.36562c-1.5885-2.7548 0.27931-4.6554 0.27931-4.6554 1.5697-1.5687 4.2539-2.1791 4.2539-2.1791l1.6555-0.47067c0.69678-0.2267 0.29722-0.54069 0.29722-0.54069-3.2952-1.9528-6.433-0.62783-6.433-0.62783-0.41796 1.6052-1.8664 1.7622-1.8664 1.7622-1.3956 0.15791-2.0928-0.55861-2.0928-0.55861l3.5406 7.2701zm84.399-0.0888c2.5135 0.0255 1.2443-1.0952 1.2443-1.0952-0.94641-0.72127-2.2401-0.97064-2.2401-0.97064l0.99588 2.0659zm-118.4-4.3956 0.57734-4.0389-2.6237-0.0529 2.0463 4.0919zm13.534-0.23614-1.9934-3.8557h-2.0382l4.0316 3.8557zm-26.438-9.6975-2.3989-4.6391 50.653-3.403s-5.0614-4.4629-2.8981-10.033c0 0 1.7732-3.7273 8.0526-5.7848 0 0 6.4212-1.8068 8.6918-2.872 0 0 1.2438-0.32008 0.56838-1.7027 0 0-1.2408-2.2694-5.4632-3.122 0 0-7.2014-1.6322-12.204 0.88596 0 0-1.2432 0.71307-1.3949 1.6319 0 0-0.21025 2.3198-2.4095 2.7727 0 0-1.8137 0.26478-3.2401-0.61805 0 0-1.2055-0.64411-1.5056-2.0903l-2.048-8.3555s22.537-6.9699 38.748 4.1171c0 0 5.1098-3.9608 18.2-1.083 0 0-0.76632-1.0581-0.41611-2.4079 0 0 0.70496-1.9161 2.973-1.9161h21.729s3.6768-0.0752 4.1578 3.0569c0 0 0.42279 2.5618-2.5895 3.0439l-1.0553 0.0611s-0.54214 0.0601-0.30293 0.66203l11.18 23.532 4.5202-0.0594s3.4834-0.12667 4.534-2.1831c0 0 0.74-1.7763 3.289-1.842 0 0 2.4684 0.0324 3.1912 2.7637l3.166 9.4573h-45.699l-5.7848-7.9541s-0.83036-0.95557-0.46659-1.9421c0 0-5.6594 0.33451-9.9198-2.438 0 0-4.299-2.3684-4.0577-6.5079l-1.2052-0.48206s-1.2053 1.9684-3.4958 3.0935c0 0-2.5709 1.5657-7.9956 3.0927 0 0-3.6937 1.1652-5.1008 2.0496 0 0-1.005 0.52301 0.0399 1.4861 0 0 3.9364 3.4946 12.816 1.7263 0 0 2.5871-0.56086 3.1285-1.5854l0.51138-1.0089s0.7985-1.9128 3.5398-1.7638c0 0 2.4631 0.11977 3.3069 2.5708l2.6237 8.2733s-4.7009 1.4267-14.907 1.4267l-73.062 0.0904zm108.99-8.222c0.41931 0.006 0.84876-0.001 1.289-0.0253 0 0-4.7462-9.2421-4.6716-9.165 0.0782 0.0771-6.4582 1.0474-12.686-1.991l-1.4552 1.991s-0.40774 0.38321 0.25569 0.76626c0.66342 0.38096 1.8876 0.71369 3.3427 0.0253 0 0 2.4002-1.1983 4.3655 0.73938 0 0 1.9666 2.0672-0.61154 4.2629 0 0 3.8818 3.2992 10.171 3.3964zm-26.326-17.227s0.92706-1.5462 2.6823-3.3671c0 0-4.5334 0.12713-2.6823 3.3671z" fill="#fff"/><path d="m255.93 529.59-13.163-11.518-2.4893 11.507h-7.5258l-0.68972-1.4014h2.0903s1.1366 0.0168 0.28664-1.627l-6.0804-12.231s-0.21837-0.45357-0.82082-0.45357h-1.7125l-0.65715-1.3273h7.1357l0.6433 1.3143h-1.8762s-0.57646-0.0684-0.30129 0.57571l4.9029 10.19 1.89-11.313h2.1375l13.385 12.18-5.332-10.957s-0.27442-0.65714-1.0952-0.65714h-1.0969l-0.62049-1.333h10.252l-0.008-0.0187h9.1487l0.64818 1.3745h-2.118s-0.58382-0.0357-0.32898 0.56675l5.2498 10.824s0.20084 0.51057 0.87782 0.51057h1.333l0.6376 1.2793-8.7562-0.002-0.63759-1.2776h1.7027s0.65486 0.0613 0.36562-0.57815l-5.3467-10.916s-0.23725-0.42263-0.78498-0.42263h-1.3517l-0.003-0.007h-2.2971s-0.80293-0.0535-0.41937 0.78498l6.2905 13.03s0.2181 0.50731 0.93156 0.50731h1.5333l0.69867 1.3965h-6.6284zm59.636-2.1017c-2.5826 0.01-7.421-0.48558-11.941-3.7539 0 0-4.5506-3.1692-4.3818-7.1805 0 0 0.0337-3.4389 5.696-4.2816 0 0 7.4177-1.3488 14.328 3.6074 0 0 4.3511 3.1344 4.2156 7.2823 0 0 0.20207 3.4716-6.0356 4.2132 0 0-0.70714 0.10879-1.881 0.11319zm-34.466-0.00084c-5.3703 0.0641-8.6658-2.3761-8.6658-2.3761-2.7397-2.0815-1.9046-3.9713-1.9046-3.9713 0.45184-1.4243 3.3012-2.1367 3.3012-2.1367 2.0674-0.50656 3.1359-0.97227 3.1359-0.97227 1.6859-0.71242 1.0537-1.754 1.0537-1.754-0.9584-2.1091-4.6008-2.5887-4.6008-2.5887-3.4933-0.57535-5.1228 0.68483-5.1228 0.68483-0.35491 0.21941-0.42425 0.57571-0.42425 0.57571 0 0.0683-0.0684 0.31025-0.0684 0.31025-0.14645 0.65717-0.7858 0.51057-0.7858 0.51057-0.71242-0.0532-0.83955-0.8029-0.83955-0.8029l-0.42018-2.1188c2.6647-0.83958 5.7156-0.72962 5.7156-0.72962 5.5341 0.073 8.5274 2.4641 8.5274 2.4641 3.0685 2.3916 2.3199 4.2743 2.3199 4.2743-0.60245 1.5708-2.9771 2.2271-2.9771 2.2271l-4.0536 1.2972c-0.89534 0.38357-0.76789 1.0586-0.76789 1.0586 0.18345 1.3326 2.1742 2.0097 2.1742 2.0097 3.4146 1.2237 5.6374 0.19625 5.6374 0.19625 0.61756-0.23348 0.48044-0.68401 0.48044-0.68401-0.0823-0.47946 0.49183-0.55373 0.49183-0.55373 0.80466-0.1454 1.0594 0.67424 1.0594 0.67424l0.76789 1.9006c-1.4452 0.3423-2.7948 0.49007-4.034 0.50487zm15.742 0c-5.3701 0.0641-8.6666-2.3761-8.6666-2.3761-2.7397-2.0815-1.9038-3.9713-1.9038-3.9713 0.45184-1.4243 3.3012-2.1367 3.3012-2.1367 2.0679-0.50656 3.1359-0.97227 3.1359-0.97227 1.6844-0.71242 1.0537-1.754 1.0537-1.754-0.95736-2.1091-4.6008-2.5887-4.6008-2.5887-3.4933-0.57535-5.1228 0.68483-5.1228 0.68483-0.35595 0.21941-0.42425 0.57571-0.42425 0.57571 0 0.0683-0.0684 0.31025-0.0684 0.31025-0.14592 0.65717-0.7858 0.51057-0.7858 0.51057-0.71242-0.0532-0.83954-0.8029-0.83954-0.8029l-0.42019-2.1188c2.6652-0.83958 5.7156-0.72962 5.7156-0.72962 5.5336 0.073 8.5274 2.4641 8.5274 2.4641 3.0686 2.3916 2.3199 4.2743 2.3199 4.2743-0.60245 1.5708-2.9771 2.2271-2.9771 2.2271l-4.0536 1.2972c-0.89534 0.38357-0.76707 1.0586-0.76707 1.0586 0.18188 1.3326 2.1734 2.0097 2.1734 2.0097 3.4146 1.2237 5.6382 0.19625 5.6382 0.19625 0.616-0.23348 0.47962-0.68401 0.47962-0.68401-0.0823-0.47946 0.49184-0.55373 0.49184-0.55373 0.80466-0.1454 1.0602 0.67424 1.0602 0.67424l0.76707 1.9006c-1.4451 0.3423-2.7948 0.49007-4.034 0.50487zm43.99-0.41284-0.63027-1.2923h2.0805s0.54792 0.0424 0.34363-0.45112l-3.438-7.2326s-1.2873-2.958-4.7124-3.8622c0 0-5.0388-1.4249-7.0942 0.40959 0 0-0.73929 0.79535-0.0269 2.412l3.9982 8.2456s0.15097 0.49265 0.83628 0.49265l1.3428-0.0138 0.62864 1.2882h-8.9019l-0.64411-1.2744h1.9046s0.52017-0.014 0.30129-0.50649l-3.7946-8.0127s-1.7248-3.0956 1.3151-4.2995c0 0 3.6886-1.9559 10.446-0.0203 0 0 4.3475 0.98735 6.3206 5.0039l3.5414 7.2684s0.16862 0.55291 1.004 0.55291h1.6148s0.72688 0.0538 0.42669-0.57571l-5.2563-10.917s-0.18309-0.45519-0.76626-0.45519h-1.4071l-0.61968-1.2784h9.0021l0.6213 1.2784h-2.0276s-0.51174-0.0196-0.29234 0.45519l2.1367 4.5845h1.6432s1.2055-4.0166 2.4844-5.753c0 0 0.34673-0.58385 1.2223-0.58385h3.5707l-0.007-0.0179h9.2146l0.63842 1.3322h-2.2019s-0.58539-0.0362-0.32898 0.56675l5.2767 10.866s0.20055 0.51057 0.87701 0.51057h1.3338l0.63923 1.2793-8.7578-0.002-0.63759-1.2776h1.7035s0.65487 0.0608 0.36563-0.57815l-5.3662-10.964s-0.23696-0.41855-0.78417-0.41855h-0.9967l0.009 0.0171s-0.89491-0.1286-1.5333 0.87619c0 0-1.3525 2.0274-2.5032 4.53 0 0 4.4388 0.71196 5.8271 3.1416 0 0 1.7156 2.2995-0.82244 3.8337 0 0-1.315 0.84117-4.7124 0.84117h-14.407zm-26.975-0.94052c0.14119-0.00042 0.21823-0.006 0.21823-0.006 2.6652 0 3.7767-1.2141 3.7767-1.2141 1.8199-1.8199 0.47067-4.7873 0.47067-4.7873-1.5176-4.1463-5.4273-5.7644-5.4273-5.7644-5.1912-2.0898-7.8881 0.26954-7.8881 0.26954-2.698 2.6297 0.77603 7.3824 0.77603 7.3824 2.9486 3.8943 7.0855 4.1231 8.0738 4.1196zm39.295-0.46904h1.377s2.5893-0.0412 2.3631-2.1164c0 0-0.34806-3.5546-7.1512-3.3712l2.5072 5.1179s0.10287 0.36969 0.90388 0.36969zm-129.87-17.761-0.83303-1.3363 53.495-3.0129c-8.2561-4.9416-6.9305-10.184-6.9305-10.184 0.66186-4.0984 7.5917-5.9045 7.5917-5.9045 5.002-1.3279 8.5282-2.8647 8.5282-2.8647 2.2597-0.93338 1.9885-2.3191 1.9885-2.3191-0.90368-5.002-7.8645-5.9061-7.8645-5.9061-8.4046-1.5369-12.767 0.93482-12.767 0.93482-2.2352 1.0804-2.4975 2.7629-2.4975 2.7629l-0.0709 0.44216c-0.30174 1.613-2.127 1.0456-2.127 1.0456-1.3644-0.33615-1.5195-1.5089-1.5195-1.5089l-1.5667-6.3279c21.634-5.7848 35.223 4.0072 35.223 4.0072-0.93495 0.90368-1.175 2.4714-1.175 2.4714-0.90368 5.7551 6.2978 9.3107 6.2978 9.3107-1.356 2.5005-9.4597 4.8516-9.4597 4.8516-4.4011 1.2648-7.0828 2.9225-7.0828 2.9225-1.9283 1.1742-0.21091 3.2841-0.21091 3.2841 2.1998 3.1024 8.7985 3.4046 8.7985 3.4046 6.5686 0.27047 9.3457-1.6229 9.3457-1.6229 0.66864-0.30122 1.2679-1.2915 1.2679-1.2915l0.50732-1.0366c0.32363-0.8526 1.4519-0.89898 1.4519-0.89898 1.7526 0.0229 2.1449 1.4967 2.1449 1.4967l2.0659 6.1854c-3.9769 1.0256-12.715 1.0952-12.715 1.0952h-71.886zm99.745-0.22475-5.0096-6.8287c-0.85052-1.1236 0.39412-1.456 0.39412-1.456 1.0934-0.2736 1.8819 0.39331 1.8819 0.39331 4.312 3.462 10.351 3.4917 10.351 3.4917l4.7343 0.0904-5.8923-11.536c4.0671-1.356 4.942-3.4355 4.942-3.4355 1.1747-2.7423-0.18077-4.1888-0.18077-4.1888-1.0236-1.2945-2.8924-0.21009-2.8924-0.21009l-0.84524 0.39168c-1.9872 0.96413-4.0357 1.3257-4.0357 1.3257l-3.4364-7.1105c-1.4754-3.0727-4.8207-3.1334-4.8207-3.1334l-1.1156-0.0603c-1.7172-0.15113-2.109-1.0553-2.109-1.0553-0.78277-1.4467 1.0553-1.4755 1.0553-1.4755l21.71 0.0147c1.9126 0 2.245 1.2491 2.245 1.2491 0.34552 1.2216-1.2361 1.2508-1.2361 1.2508l-1.5179 0.11807c-2.329 0.28038-1.3648 2.2882-1.3648 2.2882l12.184 25.508c7.0106 0.15165 8.9826-0.69786 8.9826-0.69786 1.5796-0.5175 2.5496-2.0651 2.5496-2.0651 0.72805-1.3362 1.6701-1.2133 1.6701-1.2133 1.4572 0.0313 1.6693 1.2744 1.6693 1.2744l2.1913 7.0706h-42.105zm-8.0021-9.7578c-5.334 0.0292-8.5892-2.5015-8.5892-2.5015-4.0353-3.1947-2.3794-6.0877-2.3794-6.0877-2.2305-0.36064-4.3988-1.3558-4.3988-1.3558-5.604-2.8314-5.3345-6.8694-5.3345-6.8694 0.12143-2.8017 3.9477-3.9787 3.9477-3.9787 8.2259-2.2597 15.607 0.42425 15.607 0.42425 1.2372-1.2966 3.3166-1.026 3.3166-1.026 2.8017 0.12039 3.464 1.9893 3.464 1.9893l4.3997 8.919c3.3135 0.0302 6.2978-1.5977 6.2978-1.5977 2.1982-0.96309 1.5667 1.3257 1.5667 1.3257-0.60298 2.29-4.2783 3.1033-4.2783 3.1033-8.5886 1.6281-14.192-2.3802-14.192-2.3802-1.4467 1.9892-2.7735 3.9779-2.7735 3.9779-1.2654 1.9283 2.2304 3.1636 2.2304 3.1636 1.898 0.75411 3.7653-0.14983 3.7653-0.14983 1.5384-0.69418 2.2906 0 2.2906 0 1.0553 0.813-0.12052 1.7475-0.12052 1.7475-1.4462 1.2356-4.8198 1.2964-4.8198 1.2964zm5.9346-10.426-2.1693-4.4901c-1.2346 1.0538-3.1636 3.4958-3.1636 3.4958 2.6516 0.87449 5.3328 0.99426 5.3328 0.99426zm-15.909-0.30211s3.0118-5.0918 6.7188-7.6829c0 0-6.0264-1.6578-8.555 1.206 0 0-2.4419 2.6798 1.8362 6.477z" fill="#007a33"/></g></g></svg>
